<svg width="28" height="28" viewBox="0 0 28 28"
    xmlns="http://www.w3.org/2000/svg">
    <path fill-rule="evenodd" clip-rule="evenodd" d="M18.5788 3.71686C16.3628 2.72949 13.887 2.48488 11.5207 3.01952C9.15439 3.55417 7.02427 4.83941 5.44807 6.68357C3.87186 8.52773 2.93401 10.832 2.77439 13.2527C2.61477 15.6734 3.24193 18.0809 4.56233 20.1161C5.88274 22.1512 7.82564 23.705 10.1013 24.5458C12.3769 25.3865 14.8634 25.4691 17.1898 24.7812C19.5162 24.0934 21.5579 22.672 23.0105 20.7289C24.4631 18.7859 25.2486 16.4253 25.25 13.9994V12.8501C25.25 12.1597 25.8096 11.6001 26.5 11.6001C27.1904 11.6001 27.75 12.1597 27.75 12.8501V14.0001C27.7483 16.9652 26.7882 19.851 25.0128 22.2258C23.2375 24.6006 20.742 26.3379 17.8986 27.1786C15.0552 28.0194 12.0162 27.9184 9.2349 26.8908C6.45356 25.8633 4.0789 23.9642 2.46507 21.4768C0.851241 18.9893 0.0847129 16.0469 0.279806 13.0882C0.474898 10.1296 1.62116 7.31324 3.54763 5.05926C5.47411 2.80529 8.07758 1.23444 10.9698 0.580991C13.8619 -0.072459 16.8879 0.226503 19.5963 1.43329C20.2268 1.71427 20.5103 2.45324 20.2293 3.08383C19.9483 3.71442 19.2093 3.99784 18.5788 3.71686Z"/>
    <path fill-rule="evenodd" clip-rule="evenodd" d="M27.3834 3.11567C27.8718 3.60359 27.8722 4.39504 27.3843 4.88344L14.8843 17.3959C14.6499 17.6306 14.3319 17.7624 14.0003 17.7625C13.6687 17.7626 13.3506 17.6309 13.1161 17.3964L9.36612 13.6464C8.87796 13.1582 8.87796 12.3668 9.36612 11.8786C9.85427 11.3905 10.6457 11.3905 11.1339 11.8786L13.9996 14.7443L25.6157 3.11656C26.1036 2.62816 26.895 2.62776 27.3834 3.11567Z"/>
</svg>
