<svg width="34" height="34" viewBox="7 7 32 32"
    xmlns="http://www.w3.org/2000/svg">
    <path d="M22.5522 33.6667C17.7032 33.6667 13 33.0738 13 31.5685C13 26.3805 18.4761 24.6959 22.6667 24.6959C26.8572 24.6959 32.3333 26.3835 32.3333 31.5685C32.3333 33.0678 27.4712 33.6607 22.6353 33.6667H22.5522ZM18.1465 17.8915C18.1046 16.6391 18.5529 15.4209 19.3933 14.5039C20.2336 13.587 21.3974 13.0462 22.6295 13C23.8615 13.0464 25.0252 13.5873 25.8655 14.5042C26.7058 15.4211 27.1542 16.6392 27.1124 17.8915C27.1544 19.1439 26.706 20.3621 25.8657 21.2791C25.0253 22.196 23.8615 22.7369 22.6295 22.783C21.3973 22.7371 20.2334 22.1963 19.393 21.2793C18.5527 20.3623 18.1044 19.144 18.1465 17.8915Z" />

</svg>
