<svg id="Layer_1" data-name="Layer 1" xmlns="http://www.w3.org/2000/svg" viewBox="0 0 1280 269.5"><defs><style>.cls-1{fill:#1a1a1a;}.cls-2{fill:#008e9d;}</style></defs><path class="cls-1" d="M325.15,215l22.3-3.5,65.1-78.9-62.8-75.9L327.35,53V13.9h107.7V51.4l-21.9,2.7,36.3,46.1,35.6-46.1-22.3-2.7V13.9h108.1V53l-21.6,3.7-61.5,75.9,64.8,78.9,22.6,3.5v38.8H465.65V216.6l21.9-2.7-37.2-48.3-37.8,48.6,19.2,2.4v37.2H325.15ZM742,253.8a94.75,94.75,0,0,1-4.6-12.3,81.41,81.41,0,0,1-3.1-12.7,89.26,89.26,0,0,1-28,21.5c-11,5.5-23.6,8.2-37.7,8.2q-35.2,0-55.9-19.2T592,187.1c0-22.5,9-39.8,27-52.1s44.4-18.4,79.2-18.4h33V93.1c0-11.5-3.3-20.5-10-26.8s-16.4-9.6-29.4-9.6a69.75,69.75,0,0,0-19.7,2.6,50.45,50.45,0,0,0-13.9,6.1L654,91.1h-48.7l.2-53.2a183.17,183.17,0,0,1,40.6-20.2c15.3-5.5,31.9-8.2,49.9-8.2,29.7,0,53.7,7.3,72.2,21.8S796,66.6,796,93.5v99.1c0,3.7,0,7.2.1,10.5a70.73,70.73,0,0,0,.8,9.3l19.7,2.6v38.8Zm-55.9-43.2a56,56,0,0,0,26.5-6.3q12-6.3,18.6-15.9V151.9h-33q-20.5,0-31.2,9.6c-7,6.4-10.6,14.2-10.6,23.2s2.6,14.5,7.9,19S676.75,210.6,686.05,210.6ZM829.05,53V13.9h94.4l2.7,31.7a81,81,0,0,1,28.9-26.7c11.5-6.3,24.9-9.4,40.1-9.4s28.5,3.4,39.4,10.2,19.1,17.1,24.7,30.8c7.4-12.8,17-22.9,28.8-30.1s25.7-10.9,41.6-10.9q35.4,0,55.8,24.5t20.5,74.6v99.8l31.2,6.6v38.8h-123.7V215l27.9-6.6v-100c0-18.2-2.9-30.8-8.8-37.9s-14.7-10.7-26.4-10.7a43.29,43.29,0,0,0-39.8,23.1c0,2.8.1,5.2.2,7.2s.3,4.06.3,6.1V208.4L1093,215v38.8H976.35V215l26.1-6.6v-100c0-17.7-3-30.3-8.8-37.6s-14.8-11-26.6-11a50.54,50.54,0,0,0-22.9,5A43.13,43.13,0,0,0,928,78.9V208.4l27.8,6.6v38.8H832.35V215l31.2-6.6V59.6Z"/><path class="cls-2" d="M269.75,118.9v-.6l-11.2-34.1a17.29,17.29,0,0,0-26.8-8.5L164,126.2a7.1,7.1,0,0,1-10.6-7.4l27.4-80.4a17.2,17.2,0,0,0-16.3-22.8h-36.4a17.19,17.19,0,0,0-16.4,22.8L139,118.6a7.4,7.4,0,0,1-2.8,7.3,7.3,7.3,0,0,1-7.9.3L60.55,75.5A17.31,17.31,0,0,0,33.75,84l-.2.6-11,34.1a17.21,17.21,0,0,0,16.6,22.6l85.5-1.2a7.21,7.21,0,0,1,3.2,12.4l-69.3,49a17.41,17.41,0,0,0-4,24.29,17.64,17.64,0,0,0,3.76,3.81l.5.3,29,21.1a17.2,17.2,0,0,0,26.6-8.8l25.1-81.3a7.29,7.29,0,0,1,6.6-4.2,7.09,7.09,0,0,1,6.4,4.1l25.1,81.4a17.19,17.19,0,0,0,26.6,8.9l.5-.3,29-21.1a17.41,17.41,0,0,0-.2-28.1l-69.2-49.1a7.3,7.3,0,0,1-2-7.6,6.89,6.89,0,0,1,5.2-4.7l85.6,1.3a17.2,17.2,0,0,0,16.6-22.6Z"/></svg>